<?xml version="1.0" encoding="UTF-8"?>
<svg xmlns="http://www.w3.org/2000/svg" xmlns:xlink="http://www.w3.org/1999/xlink" width="1920" height="1080" viewBox="0 0 1920 1080">
<defs>
<g>
<g id="glyph-0-0">
<path d="M 0.820312 -1.074219 L 0.820312 -1.539062 L 1.410156 -1.539062 C 1.679688 -1.539062 1.878906 -1.605469 2.015625 -1.738281 C 2.152344 -1.871094 2.222656 -2.0625 2.222656 -2.320312 C 2.222656 -2.542969 2.152344 -2.714844 2.015625 -2.828125 C 1.878906 -2.945312 1.679688 -3.003906 1.410156 -3.003906 L 0.828125 -3.003906 L 0.828125 -3.46875 L 1.410156 -3.46875 C 1.84375 -3.46875 2.175781 -3.371094 2.398438 -3.175781 C 2.621094 -2.984375 2.734375 -2.695312 2.734375 -2.320312 C 2.734375 -1.910156 2.621094 -1.601562 2.398438 -1.390625 C 2.175781 -1.179688 1.84375 -1.074219 1.410156 -1.074219 L 0.820312 -1.074219 M 0.390625 0 L 0.390625 -3.46875 L 0.878906 -3.46875 L 0.878906 0 Z "/>
</g>
<g id="glyph-0-1">
<path d="M 0.796875 -1.320312 L 0.796875 -1.78125 L 1.53125 -1.78125 C 1.726562 -1.78125 1.878906 -1.832031 1.984375 -1.9375 C 2.09375 -2.039062 2.148438 -2.183594 2.148438 -2.367188 C 2.148438 -2.570312 2.09375 -2.726562 1.984375 -2.839844 C 1.878906 -2.949219 1.726562 -3.003906 1.53125 -3.003906 L 0.804688 -3.003906 L 0.746094 -3.46875 L 1.53125 -3.46875 C 1.894531 -3.46875 2.171875 -3.375 2.367188 -3.195312 C 2.5625 -3.011719 2.660156 -2.753906 2.660156 -2.417969 C 2.660156 -2.070312 2.5625 -1.796875 2.367188 -1.605469 C 2.171875 -1.414062 1.894531 -1.320312 1.53125 -1.320312 L 0.796875 -1.320312 M 0.34375 0 L 0.34375 -3.46875 L 0.828125 -3.46875 L 0.828125 0 L 0.34375 0 M 2.203125 0 L 1.425781 -1.632812 L 1.960938 -1.632812 L 2.789062 0 Z "/>
</g>
<g id="glyph-0-2">
<path d="M 0.390625 0 L 0.390625 -3.46875 L 0.878906 -3.46875 L 0.878906 0 L 0.390625 0 M 0.390625 0 L 0.390625 -0.464844 L 2.6875 -0.464844 L 2.6875 0 L 0.390625 0 M 0.390625 -1.503906 L 0.390625 -1.96875 L 2.246094 -1.96875 L 2.246094 -1.503906 L 0.390625 -1.503906 M 0.390625 -3.003906 L 0.390625 -3.46875 L 2.6875 -3.46875 L 2.6875 -3.003906 Z "/>
</g>
<g id="glyph-0-3">
<path d="M 1.34375 0.046875 C 1.148438 0.046875 0.964844 0.03125 0.792969 0 C 0.621094 -0.03125 0.460938 -0.078125 0.316406 -0.140625 L 0.378906 -0.632812 C 0.558594 -0.558594 0.730469 -0.5 0.898438 -0.460938 C 1.0625 -0.421875 1.226562 -0.398438 1.382812 -0.398438 C 1.613281 -0.398438 1.78125 -0.441406 1.890625 -0.519531 C 2.003906 -0.601562 2.058594 -0.722656 2.058594 -0.882812 C 2.058594 -1.089844 1.953125 -1.242188 1.742188 -1.335938 L 1.140625 -1.609375 C 0.902344 -1.71875 0.722656 -1.847656 0.597656 -2 C 0.472656 -2.152344 0.40625 -2.339844 0.40625 -2.5625 C 0.40625 -2.867188 0.5 -3.101562 0.679688 -3.265625 C 0.863281 -3.433594 1.121094 -3.515625 1.453125 -3.515625 C 1.6875 -3.515625 1.894531 -3.480469 2.074219 -3.414062 C 2.25 -3.34375 2.425781 -3.234375 2.589844 -3.078125 L 2.25 -2.730469 C 2.105469 -2.847656 1.972656 -2.933594 1.847656 -2.988281 C 1.722656 -3.039062 1.59375 -3.066406 1.457031 -3.066406 C 1.289062 -3.066406 1.160156 -3.027344 1.066406 -2.945312 C 0.976562 -2.863281 0.929688 -2.746094 0.929688 -2.585938 C 0.929688 -2.476562 0.960938 -2.382812 1.019531 -2.3125 C 1.082031 -2.242188 1.167969 -2.179688 1.285156 -2.125 L 1.792969 -1.882812 C 2.050781 -1.765625 2.246094 -1.628906 2.378906 -1.476562 C 2.515625 -1.324219 2.582031 -1.132812 2.582031 -0.894531 C 2.582031 -0.578125 2.476562 -0.34375 2.273438 -0.1875 C 2.070312 -0.03125 1.761719 0.046875 1.34375 0.046875 Z "/>
</g>
<g id="glyph-0-4">
<path d="M 1.953125 0 L 0.878906 -2.636719 L 0.65625 -2.636719 L 0.65625 -3.46875 L 0.976562 -3.46875 L 2.050781 -0.828125 L 2.171875 -0.828125 L 2.171875 0 L 1.953125 0 M 0.359375 0 L 0.359375 -3.46875 L 0.828125 -3.46875 L 0.828125 0 L 0.359375 0 M 2.101562 0 L 2.101562 -3.46875 L 2.570312 -3.46875 L 2.570312 0 Z "/>
</g>
<g id="glyph-0-5">
<path d="M 1.21875 0 L 1.21875 -3.46875 L 1.710938 -3.46875 L 1.710938 0 L 1.21875 0 M 0.195312 -3.003906 L 0.195312 -3.46875 L 2.734375 -3.46875 L 2.734375 -3.003906 Z "/>
</g>
<g id="glyph-0-6">
<path d="M 0.796875 0 L 0.796875 -0.464844 L 1.179688 -0.464844 C 1.539062 -0.464844 1.804688 -0.566406 1.984375 -0.769531 C 2.164062 -0.972656 2.253906 -1.277344 2.257812 -1.683594 C 2.253906 -2.125 2.164062 -2.457031 1.984375 -2.675781 C 1.804688 -2.894531 1.539062 -3.003906 1.179688 -3.003906 L 0.804688 -3.003906 L 0.746094 -3.46875 L 1.179688 -3.46875 C 2.238281 -3.46875 2.769531 -2.871094 2.769531 -1.683594 C 2.769531 -0.5625 2.238281 0 1.179688 0 L 0.796875 0 M 0.34375 0 L 0.34375 -3.46875 L 0.828125 -3.46875 L 0.828125 0 Z "/>
</g>
<g id="glyph-0-7">
</g>
<g id="glyph-0-8">
<path d="M 0.84375 0 L 0.84375 -0.464844 L 1.578125 -0.464844 C 1.792969 -0.464844 1.957031 -0.511719 2.078125 -0.613281 C 2.195312 -0.710938 2.253906 -0.847656 2.257812 -1.023438 C 2.253906 -1.207031 2.195312 -1.347656 2.070312 -1.449219 C 1.945312 -1.550781 1.769531 -1.597656 1.542969 -1.597656 L 0.855469 -1.597656 L 0.796875 -1.820312 L 1.664062 -1.820312 C 2.015625 -1.820312 2.289062 -1.746094 2.480469 -1.59375 C 2.671875 -1.441406 2.769531 -1.230469 2.769531 -0.953125 C 2.769531 -0.648438 2.675781 -0.414062 2.496094 -0.25 C 2.3125 -0.0820312 2.054688 0 1.71875 0 L 0.84375 0 M 0.390625 0 L 0.390625 -3.46875 L 0.878906 -3.46875 L 0.878906 0 L 0.390625 0 M 0.679688 -1.703125 L 0.679688 -1.945312 L 1.695312 -1.945312 L 1.695312 -1.703125 L 0.679688 -1.703125 M 0.84375 -1.839844 L 0.84375 -2.0625 L 1.429688 -2.0625 C 1.613281 -2.0625 1.757812 -2.105469 1.859375 -2.1875 C 1.960938 -2.269531 2.011719 -2.386719 2.011719 -2.539062 C 2.011719 -2.6875 1.957031 -2.804688 1.851562 -2.882812 C 1.746094 -2.964844 1.59375 -3.003906 1.398438 -3.003906 L 0.855469 -3.003906 L 0.796875 -3.46875 L 1.421875 -3.46875 C 1.773438 -3.46875 2.042969 -3.390625 2.234375 -3.238281 C 2.429688 -3.085938 2.523438 -2.871094 2.523438 -2.585938 C 2.523438 -2.347656 2.433594 -2.164062 2.25 -2.035156 C 2.070312 -1.90625 1.808594 -1.839844 1.476562 -1.839844 Z "/>
</g>
<g id="glyph-0-9">
<path d="M 1.257812 -1.15625 L 0.0625 -3.46875 L 0.597656 -3.46875 L 1.441406 -1.734375 L 1.488281 -1.734375 L 2.332031 -3.46875 L 2.867188 -3.46875 L 1.671875 -1.15625 L 1.257812 -1.15625 M 1.21875 0 L 1.21875 -1.710938 L 1.710938 -1.710938 L 1.710938 0 Z "/>
</g>
</g>
</defs>
<g fill="rgb(48.627451%, 50.980392%, 55.686275%)" fill-opacity="1">
<use xlink:href="#glyph-0-0" x="30" y="24.638672"/>
<use xlink:href="#glyph-0-1" x="33" y="24.638672"/>
<use xlink:href="#glyph-0-2" x="36" y="24.638672"/>
<use xlink:href="#glyph-0-3" x="39" y="24.638672"/>
<use xlink:href="#glyph-0-2" x="42" y="24.638672"/>
<use xlink:href="#glyph-0-4" x="45" y="24.638672"/>
<use xlink:href="#glyph-0-5" x="48" y="24.638672"/>
<use xlink:href="#glyph-0-2" x="51" y="24.638672"/>
<use xlink:href="#glyph-0-6" x="54" y="24.638672"/>
<use xlink:href="#glyph-0-7" x="57" y="24.638672"/>
<use xlink:href="#glyph-0-8" x="60" y="24.638672"/>
<use xlink:href="#glyph-0-9" x="63" y="24.638672"/>
</g>
</svg>
