<?xml version="1.0" encoding="UTF-8"?>
<svg xmlns="http://www.w3.org/2000/svg" xmlns:xlink="http://www.w3.org/1999/xlink" width="1920" height="1080" viewBox="0 0 1920 1080">
<defs>
<g>
<g id="glyph-0-0">
<path d="M 4.640625 0 L 3.492188 0 L 3.160156 -1.039062 L 1.5 -1.039062 L 1.171875 0 L 0.03125 0 L 1.730469 -4.667969 L 2.976562 -4.667969 L 4.640625 0 M 2.917969 -1.84375 L 2.417969 -3.414062 C 2.382812 -3.53125 2.355469 -3.671875 2.339844 -3.835938 L 2.3125 -3.835938 C 2.304688 -3.699219 2.277344 -3.5625 2.234375 -3.425781 L 1.726562 -1.84375 Z "/>
</g>
<g id="glyph-0-1">
<path d="M 5.851562 0 L 4.8125 0 L 4.8125 -2.792969 C 4.8125 -3.09375 4.828125 -3.425781 4.851562 -3.792969 L 4.828125 -3.792969 C 4.773438 -3.503906 4.722656 -3.300781 4.679688 -3.171875 L 3.585938 0 L 2.726562 0 L 1.613281 -3.140625 C 1.585938 -3.226562 1.535156 -3.441406 1.46875 -3.792969 L 1.4375 -3.792969 C 1.46875 -3.332031 1.480469 -2.929688 1.480469 -2.582031 L 1.480469 0 L 0.535156 0 L 0.535156 -4.667969 L 2.074219 -4.667969 L 3.027344 -1.902344 C 3.101562 -1.679688 3.160156 -1.457031 3.191406 -1.234375 L 3.210938 -1.234375 C 3.269531 -1.492188 3.332031 -1.714844 3.398438 -1.90625 L 4.351562 -4.667969 L 5.851562 -4.667969 Z "/>
</g>
<g id="glyph-0-2">
<path d="M 0.535156 0 L 0.535156 -4.667969 L 2.1875 -4.667969 C 3.84375 -4.667969 4.675781 -3.910156 4.675781 -2.390625 C 4.675781 -1.664062 4.449219 -1.085938 3.996094 -0.652344 C 3.542969 -0.21875 2.941406 0 2.1875 0 L 0.535156 0 M 1.585938 -3.8125 L 1.585938 -0.851562 L 2.105469 -0.851562 C 2.5625 -0.851562 2.917969 -0.988281 3.179688 -1.261719 C 3.4375 -1.535156 3.566406 -1.910156 3.566406 -2.378906 C 3.566406 -2.824219 3.4375 -3.175781 3.183594 -3.429688 C 2.925781 -3.683594 2.5625 -3.8125 2.101562 -3.8125 Z "/>
</g>
</g>
</defs>
<g fill="rgb(96.078431%, 96.862745%, 98.039216%)" fill-opacity="1">
<use xlink:href="#glyph-0-0" x="30" y="27.193359"/>
<use xlink:href="#glyph-0-1" x="35" y="27.193359"/>
<use xlink:href="#glyph-0-2" x="41" y="27.193359"/>
</g>
</svg>
